<svg version="1.1" id="Layer_1" xmlns="http://www.w3.org/2000/svg" xmlns:xlink="http://www.w3.org/1999/xlink" x="0px" y="0px"
	 width="100%" viewBox="0 0 1024 1024" enable-background="new 0 0 1024 1024" xml:space="preserve">
<path fill="#FFF" opacity="1.000000" stroke="none" 
	d="
M256.520081,286.431305 
	C274.977173,302.763519 282.980469,322.668427 279.279846,346.925201 
	C278.852020,349.729492 277.943848,352.412476 276.650574,354.954102 
	C253.370590,400.705780 234.736954,448.535156 213.760971,495.316132 
	C194.077362,539.214783 176.280014,583.973206 154.298370,626.830200 
	C152.918427,629.520752 152.691406,631.927307 153.501785,634.879578 
	C155.848587,643.429199 154.246643,651.049805 147.149963,656.964905 
	C140.275864,662.694519 132.471115,663.238770 124.662315,659.829224 
	C116.597595,656.308044 113.906570,649.226807 113.574554,640.730774 
	C113.197708,631.087646 117.438492,624.850281 126.250130,621.481995 
	C128.613419,620.578552 129.907242,618.990295 130.829163,616.635498 
	C152.565262,561.115356 176.773254,506.649261 201.177231,452.271515 
	C213.789398,424.168579 224.358459,395.189331 237.768143,367.433777 
	C240.231903,362.334290 242.669693,357.222229 245.127884,352.120026 
	C255.690262,330.196503 243.966278,308.789642 221.855743,303.058807 
	C203.040588,298.182098 183.908005,310.656982 179.382843,330.581085 
	C177.848206,337.338043 178.403931,344.162842 178.203903,350.968903 
	C178.096619,354.620148 178.389130,358.267273 177.527618,361.907928 
	C175.619720,369.970703 170.413864,373.745758 161.351303,373.355957 
	C154.557678,373.063782 148.489395,367.349884 147.719940,360.371735 
	C146.435211,348.720551 146.973434,337.059814 148.938873,325.578766 
	C153.734360,297.565918 176.544556,275.369659 204.835800,271.923615 
	C223.658859,269.630859 241.327744,273.472321 256.520081,286.431305 
z"/>
<path fill="#FFF" opacity="1.000000" stroke="none" 
	d="
M471.726227,390.094147 
	C470.533234,386.817169 470.364716,383.552399 468.056427,380.592163 
	C465.644958,383.024689 465.369354,386.121429 464.619812,388.805542 
	C458.363647,411.208771 452.173523,433.632233 446.247009,456.124268 
	C445.035614,460.721771 443.230408,462.924988 438.142639,462.484558 
	C432.683533,462.012054 427.132843,462.088623 421.658539,462.460938 
	C417.251434,462.760681 415.598846,460.919617 414.592529,456.858521 
	C406.718323,425.080811 398.656281,393.349670 390.640930,361.607025 
	C388.450134,352.930847 386.221161,344.264282 383.797485,334.761078 
	C392.635193,334.761078 400.888092,334.668152 409.136749,334.814301 
	C411.821960,334.861847 411.790131,337.507233 412.220856,339.309387 
	C417.971436,363.370361 423.633240,387.452545 429.362946,411.518524 
	C429.851593,413.570923 429.966675,415.784424 431.393646,417.724884 
	C433.894897,416.943085 433.685120,414.592651 434.169617,412.886902 
	C441.072266,388.586121 447.954163,364.278748 454.641266,339.918121 
	C455.678192,336.140717 457.117371,334.200897 461.381348,334.572021 
	C465.847321,334.960754 470.405090,334.991302 474.864563,334.567108 
	C479.527496,334.123566 481.174255,336.258789 482.310944,340.398346 
	C488.865540,364.269196 495.647491,388.077728 502.377319,411.900360 
	C502.959259,413.960297 503.722534,415.968994 504.794037,419.176208 
	C511.267059,392.897949 517.473083,367.746155 523.653503,342.588135 
	C525.602295,334.655243 525.570923,334.647522 533.773926,334.647400 
	C540.247559,334.647308 546.721191,334.647369 552.738037,334.647369 
	C554.223267,336.210052 553.540955,337.373535 553.265564,338.405640 
	C542.684692,378.057922 532.022095,417.688507 521.530457,457.364319 
	C520.555908,461.049530 519.038818,462.651062 515.098206,462.443024 
	C509.447601,462.144623 503.761810,462.193665 498.105530,462.434387 
	C494.315033,462.595734 492.569275,461.256104 491.495483,457.481079 
	C485.355072,435.893982 478.925934,414.389008 472.589783,392.857605 
	C472.354858,392.059174 472.067474,391.276184 471.726227,390.094147 
z"/>
<path fill="#FFF" opacity="1.000000" stroke="none" 
	d="
M567.198059,513.204773 
	C568.661743,508.757324 571.388977,507.356812 575.694641,507.590729 
	C582.008789,507.933838 588.357178,507.785431 594.686707,507.649200 
	C597.926819,507.579498 599.132263,508.937103 599.135254,512.088318 
	C599.166687,545.417480 599.231567,578.746765 599.379333,612.075623 
	C599.393860,615.362244 598.090393,616.497681 594.935486,616.395752 
	C590.274170,616.245117 585.601135,616.238586 580.939758,616.384705 
	C577.690002,616.486511 576.792603,615.096741 576.576477,611.951355 
	C575.581482,597.474426 575.743896,582.984497 575.600586,568.494263 
	C575.536499,562.010071 575.062744,555.529846 574.702209,547.411438 
	C572.965942,550.404724 571.846863,552.105347 570.950317,553.916260 
	C564.375610,567.196045 557.544739,580.362183 551.451050,593.860474 
	C549.063721,599.148621 545.218567,598.127441 541.194885,598.473511 
	C537.355347,598.803772 535.200623,597.596191 533.561707,593.894531 
	C527.497192,580.197021 521.070862,566.659485 514.748169,553.076843 
	C514.054199,551.585999 513.151917,550.192078 512.213135,548.515503 
	C510.824829,549.685608 511.270630,551.049561 511.250763,552.186829 
	C510.913086,571.504028 510.486511,590.821472 510.416290,610.140137 
	C510.399292,614.814575 509.177399,616.886475 504.231995,616.434814 
	C500.264893,616.072449 496.232239,616.195312 492.242249,616.386475 
	C488.768097,616.552917 487.543793,615.181396 487.602783,611.729431 
	C487.759460,602.566589 487.648926,593.399170 487.648376,584.233582 
	C487.646942,560.736328 487.777222,537.237793 487.541321,513.742859 
	C487.492188,508.854004 489.028046,507.305298 493.791321,507.597046 
	C499.602203,507.952972 505.457611,507.844543 511.281708,507.621704 
	C514.605042,507.494568 516.330261,508.759552 517.757690,511.747467 
	C524.792664,526.473083 532.041199,541.096924 539.272400,555.727966 
	C540.198608,557.602051 540.711670,559.821899 543.293579,561.325867 
	C551.238770,545.329224 559.131836,529.437439 567.198059,513.204773 
z"/>
<path fill="#FFF" opacity="1.000000" stroke="none" 
	d="
M792.292847,462.098083 
	C789.378662,461.374908 789.677429,459.338043 789.676514,457.559082 
	C789.656433,418.063202 789.684021,378.567261 789.621643,339.071472 
	C789.616699,335.920319 790.631531,334.543549 793.924561,334.618652 
	C800.587036,334.770599 807.259644,334.807983 813.919617,334.608093 
	C817.568909,334.498566 818.404602,336.150787 818.377075,339.419128 
	C818.267456,352.416809 818.340332,365.416016 818.345459,378.414673 
	C818.346130,380.053619 818.345581,381.692566 818.345581,383.777496 
	C821.292114,382.961670 822.309753,380.714111 823.680908,379.040192 
	C834.653687,365.643616 845.602112,352.225739 856.402832,338.690613 
	C858.680725,335.836060 861.082336,334.436737 864.839905,334.570404 
	C872.329651,334.836853 879.835876,334.617096 887.334534,334.680389 
	C888.923157,334.693787 890.657104,334.182251 892.471130,335.727142 
	C887.949890,342.658691 882.189941,348.600830 876.964233,354.940918 
	C866.584229,367.534210 856.119202,380.059662 845.514343,392.463562 
	C843.359497,394.983887 843.864746,396.460419 845.724854,398.791351 
	C861.207275,418.192444 876.560181,437.696960 891.907104,457.205719 
	C892.876099,458.437469 894.373718,459.529205 893.940125,462.258423 
	C886.273926,462.258423 878.487183,461.784668 870.786560,462.396118 
	C863.569275,462.969177 858.780029,460.729828 854.471802,454.720825 
	C845.938782,442.818970 836.575500,431.510529 827.492859,420.006195 
	C825.875183,417.957123 824.534485,415.609619 822.221069,414.100494 
	C819.172546,415.797455 818.271362,418.333923 818.300598,421.619843 
	C818.405945,433.450989 818.220764,445.285583 818.407043,457.114716 
	C818.468140,460.995575 817.225586,462.487274 813.255676,462.330200 
	C806.433044,462.060333 799.594299,462.197205 792.292847,462.098083 
z"/>
<path fill="#FFF" opacity="1.000000" stroke="none" 
	d="
M578.104370,461.687195 
	C569.285339,462.543549 560.840027,462.371063 552.601440,461.985901 
	C551.403931,459.861847 552.488953,458.339966 553.036865,456.864594 
	C567.572937,417.725494 582.195557,378.618408 596.668030,339.455872 
	C597.950928,335.984344 599.632141,334.383606 603.489441,334.570465 
	C609.638855,334.868378 615.815002,334.760803 621.975281,334.621063 
	C624.858643,334.555664 626.478210,335.465820 627.538452,338.334167 
	C642.240417,378.107483 657.056213,417.838654 671.818298,457.589752 
	C672.266602,458.796783 672.433472,460.108276 672.904053,462.102112 
	C664.048035,462.102112 655.631104,462.164459 647.216309,462.061279 
	C644.912659,462.033020 644.509094,459.810303 643.868896,458.168335 
	C641.391479,451.814453 638.908081,445.458557 636.654907,439.023590 
	C635.669678,436.209900 634.082336,435.231934 631.127014,435.262573 
	C618.468140,435.393799 605.805298,435.427826 593.147827,435.238586 
	C589.663574,435.186462 588.259888,436.634705 587.077637,439.695679 
	C584.267944,446.970184 582.234741,454.561462 578.104370,461.687195 
M604.450562,388.814423 
	C602.213318,396.369873 598.633606,403.517059 596.898071,411.784424 
	C607.307861,411.784424 617.046265,411.784424 627.306946,411.784424 
	C622.771484,397.002716 618.313171,382.507751 612.134094,367.548859 
	C609.433838,375.033325 607.080750,381.555389 604.450562,388.814423 
z"/>
<path fill="#FFF" opacity="1.000000" stroke="none" 
	d="
M785.089478,613.112427 
	C778.179749,602.449036 771.490784,592.105591 764.844971,581.734558 
	C763.618103,579.820007 762.267212,578.501160 759.743469,578.329285 
	C755.564819,578.044739 753.453308,578.675781 753.826965,583.898499 
	C754.467285,592.850098 753.954712,601.878052 754.216492,610.865540 
	C754.332886,614.865051 753.167175,616.720764 748.890259,616.418335 
	C744.912964,616.137085 740.877014,616.089722 736.908813,616.429443 
	C732.161011,616.835754 730.596558,615.201111 730.629761,610.308044 
	C730.823975,581.662598 730.703064,553.015015 730.687683,524.368164 
	C730.685486,520.370911 730.808289,516.368042 730.633972,512.378235 
	C730.488037,509.037140 731.611694,507.589050 735.179199,507.626617 
	C749.001465,507.772125 762.857422,507.117493 776.640686,507.867706 
	C789.836243,508.585907 801.714478,513.273804 807.569458,526.309448 
	C813.642883,539.831299 812.518799,553.198914 803.845947,565.524536 
	C800.297729,570.567261 794.524475,572.814331 788.877380,576.123840 
	C796.919128,589.282837 804.760254,602.113464 813.471802,616.368469 
	C805.276184,616.368469 798.419006,616.315735 791.563354,616.395203 
	C788.926758,616.425720 786.541809,616.231567 785.089478,613.112427 
M778.951782,555.647827 
	C785.111694,553.081299 787.721497,548.133362 787.559082,541.805847 
	C787.413757,536.141174 784.445068,531.987976 779.040710,530.060852 
	C770.859863,527.143616 762.440918,528.401489 754.153809,528.492676 
	C754.153809,538.468811 754.153809,547.856323 754.153809,557.607971 
	C762.490540,557.467957 770.460693,558.566772 778.951782,555.647827 
z"/>
<path fill="#FFF" opacity="1.000000" stroke="none" 
	d="
M448.445801,555.343628 
	C462.682739,561.103577 469.393280,570.138916 469.341675,583.158203 
	C469.280945,598.477905 461.771820,610.602234 447.979492,615.555542 
	C431.794281,621.368347 415.669067,621.913635 400.815216,611.328552 
	C393.978210,606.456421 390.706146,599.127930 388.028625,591.508728 
	C387.434052,589.816772 387.534241,588.207947 389.658081,587.465820 
	C396.206787,585.177368 402.744720,582.858093 408.945435,580.671143 
	C410.604248,582.039368 411.061188,583.300964 411.305847,584.603516 
	C413.485992,596.210449 430.953247,601.012512 441.634125,591.789612 
	C446.505066,587.583496 445.637695,580.382751 440.227509,576.866821 
	C435.211945,573.607361 429.380402,572.806396 423.759094,571.370667 
	C416.662476,569.558167 409.585297,567.733887 403.306793,563.698792 
	C394.983643,558.349609 390.230469,551.070801 390.654816,540.901611 
	C390.814087,537.084473 390.303284,533.252075 391.100281,529.446716 
	C393.622620,517.403564 401.335449,509.840027 412.788025,507.055908 
	C423.809174,504.376709 435.288574,504.077240 446.252625,507.966095 
	C457.213684,511.853912 463.710144,520.109131 467.546967,531.594910 
	C459.711823,534.728577 452.252289,537.711975 444.383453,540.859131 
	C442.119507,532.644287 437.414215,527.797119 429.373260,526.840881 
	C425.983582,526.437805 422.697906,527.086670 419.773071,528.807800 
	C412.830383,532.893433 412.567169,541.498596 419.189453,546.134094 
	C424.121399,549.586304 430.057037,550.092041 435.643768,551.624573 
	C439.805298,552.766235 443.942719,553.995789 448.445801,555.343628 
z"/>
<path fill="#FFF" opacity="1.000000" stroke="none" 
	d="
M325.551758,567.578125 
	C335.304138,548.364258 339.686676,528.379211 339.934448,507.163208 
	C340.303131,475.597717 330.850983,447.591187 311.415649,422.902802 
	C307.413025,417.818359 302.637970,413.349060 298.357452,408.474579 
	C292.438263,401.734100 297.939453,392.817474 305.779022,391.845703 
	C310.001007,391.322388 313.429993,393.364044 316.492157,396.243011 
	C333.751526,412.469879 345.989624,432.073395 353.113403,454.428223 
	C370.268555,508.262054 362.419617,558.157837 327.440094,603.118530 
	C322.125610,609.949463 315.978699,616.118774 309.513275,621.901611 
	C304.309235,626.556213 297.236420,626.401062 292.897858,621.767029 
	C288.869965,617.464844 289.249939,611.223389 294.591339,606.302002 
	C306.814789,595.039856 317.585266,582.684143 325.551758,567.578125 
z"/>
<path fill="#FFF" opacity="1.000000" stroke="none" 
	d="
M653.830872,508.166931 
	C660.200378,507.868011 666.196289,507.954376 672.167969,507.614136 
	C675.834961,507.405182 677.414978,509.009491 678.607910,512.267090 
	C687.350830,536.143738 696.260803,559.959167 705.097351,583.801575 
	C708.331360,592.527466 711.530701,601.266357 714.693726,610.018188 
	C715.300781,611.697876 716.260986,613.334961 715.795471,615.980408 
	C708.723633,616.734802 701.504883,616.414490 694.302002,616.133545 
	C692.541870,616.064880 692.092651,614.346619 691.555542,612.938782 
	C689.658997,607.967651 687.628296,603.043152 685.895203,598.015930 
	C684.941589,595.249756 683.400208,594.040955 680.427124,594.063354 
	C669.940369,594.142395 659.451355,594.116699 648.965393,593.972534 
	C646.035339,593.932312 644.324768,594.979126 643.381958,597.766113 
	C641.732239,602.642639 639.751282,607.409851 638.185669,612.311218 
	C637.225098,615.318420 635.597778,616.526917 632.394714,616.422180 
	C626.116699,616.217041 619.827209,616.362000 613.234863,616.362000 
	C614.083252,610.506409 616.471680,605.898193 618.244141,601.117920 
	C629.052246,571.969421 639.956360,542.856506 650.866882,513.746155 
	C651.561523,511.892822 652.579529,510.160675 653.830872,508.166931 
M672.690796,558.645874 
	C670.258362,551.785950 667.825928,544.926025 665.393494,538.066101 
	C665.008911,538.122559 664.624390,538.179077 664.239868,538.235535 
	C660.187073,550.033813 656.134277,561.832092 651.836853,574.342468 
	C661.018860,574.748535 669.129944,575.022766 677.903259,574.196045 
	C676.062378,568.759705 674.478394,564.082153 672.690796,558.645874 
z"/>
<path fill="#FFF" opacity="1.000000" stroke="none" 
	d="
M719.349609,389.000122 
	C719.349365,402.829163 719.346497,416.158203 719.349365,429.487244 
	C719.350891,436.693848 719.355286,436.693665 726.815430,436.689331 
	C739.144775,436.682220 751.476074,436.795837 763.802429,436.599518 
	C767.819397,436.535522 769.578552,437.703857 769.342102,441.956024 
	C769.055786,447.105316 769.099182,452.289398 769.317993,457.444916 
	C769.477844,461.211884 767.906616,462.335510 764.315918,462.318390 
	C741.657043,462.210388 718.996948,462.172882 696.338623,462.320618 
	C692.140747,462.347992 690.805420,460.790039 690.831787,456.767242 
	C690.945618,439.440308 690.857605,422.112152 690.854187,404.784424 
	C690.849976,383.457977 690.971863,362.130432 690.769958,340.805939 
	C690.724976,336.050507 692.149719,334.255096 697.013855,334.568054 
	C702.821594,334.941772 708.677063,334.825165 714.500488,334.610565 
	C718.192078,334.474518 719.435181,335.838440 719.403809,339.516357 
	C719.264709,355.843262 719.347168,372.171997 719.349609,389.000122 
z"/>
<path fill="#FFF" opacity="1.000000" stroke="none" 
	d="
M847.657898,559.999878 
	C847.658569,551.000977 847.515259,542.498474 847.726746,534.004822 
	C847.820068,530.259033 846.452515,528.994263 842.790527,529.115417 
	C836.631592,529.319214 830.457031,529.031494 824.296204,529.205933 
	C820.822144,529.304321 819.487122,527.950806 819.620239,524.522583 
	C819.788330,520.196228 819.740479,515.857056 819.643555,511.526611 
	C819.581848,508.769257 820.740417,507.674683 823.494934,507.679321 
	C847.991516,507.720581 872.488281,507.718323 896.984863,507.658173 
	C899.998291,507.650757 901.181396,508.923492 901.106873,511.856689 
	C901.001038,516.020203 900.952576,520.191589 901.087646,524.352844 
	C901.209534,528.106079 899.417236,529.289124 895.895142,529.186462 
	C890.234009,529.021301 884.550110,529.387268 878.903137,529.059143 
	C874.179871,528.784668 872.991943,530.720398 873.024109,535.169922 
	C873.203430,559.998779 873.138611,584.829468 873.126953,609.659546 
	C873.123840,616.329773 873.075378,616.338196 866.507568,616.356323 
	C861.841553,616.369202 857.167664,616.188782 852.511902,616.406433 
	C848.823059,616.578918 847.569336,615.169678 847.598694,611.492981 
	C847.734436,594.496216 847.658325,577.497803 847.657898,559.999878 
z"/>
<path fill="#FFF" opacity="1.000000" stroke="none" 
	d="
M265.687439,588.590393 
	C257.486786,583.029785 257.351898,575.445068 264.940918,569.117188 
	C279.759003,556.761597 290.255432,541.455811 293.030945,522.233093 
	C296.364838,499.143127 292.183167,477.163452 279.122498,457.389801 
	C276.643951,453.637299 273.230133,450.668152 269.322296,448.268707 
	C262.615997,444.151062 260.816528,437.962372 264.470581,432.302368 
	C268.051666,426.755371 275.679230,425.242218 281.610748,429.455933 
	C289.856079,435.313354 296.440094,442.847321 301.338440,451.696899 
	C309.407654,466.275024 313.934967,481.866394 315.481781,498.544922 
	C318.862091,534.992737 303.894165,563.385010 277.808472,587.171265 
	C274.267822,590.399780 270.152313,589.720215 265.687439,588.590393 
z"/>
<path fill="#FFF" opacity="1.000000" stroke="none" 
	d="
M232.326874,540.161377 
	C232.550003,536.360840 234.279800,533.740295 236.921738,531.810791 
	C250.847076,521.640747 249.484894,502.383057 244.037506,490.463287 
	C243.417084,489.105743 242.542725,487.866333 241.880249,486.525604 
	C239.241867,481.185852 240.266144,475.717773 244.446808,472.606750 
	C248.803146,469.365021 255.467041,469.917267 259.461731,474.097321 
	C264.364105,479.227142 266.389343,485.813354 267.695587,492.516266 
	C270.338715,506.079163 271.033234,519.579468 264.193085,532.341797 
	C261.017944,538.265869 256.757263,543.358826 251.835190,547.903809 
	C248.091797,551.360413 243.682571,552.459229 238.915634,550.707214 
	C234.343018,549.026611 232.377548,545.318237 232.326874,540.161377 
z"/>
</svg>
