<?xml version="1.0" encoding="UTF-8" standalone="no"?>
<svg
   version="1.1"
   width="786.25385"
   height="390.27228"
   id="svg65"
   sodipodi:docname="ChatGPT Image Nov 5, 2025, 01_19_27 PM.svg"
   xmlns:inkscape="http://www.inkscape.org/namespaces/inkscape"
   xmlns:sodipodi="http://sodipodi.sourceforge.net/DTD/sodipodi-0.dtd"
   xmlns="http://www.w3.org/2000/svg"
   xmlns:svg="http://www.w3.org/2000/svg">
  <defs
     id="defs65" />
  <sodipodi:namedview
     id="namedview65"
     pagecolor="#ffffff"
     bordercolor="#FFFFFF"
     borderopacity="0.25"
     inkscape:showpageshadow="2"
     inkscape:pageopacity="0.0"
     inkscape:pagecheckerboard="0"
     inkscape:deskcolor="#d1d1d1">
    <inkscape:page
       x="0"
       y="0"
       width="786.25385"
       height="390.27228"
       id="page2"
       margin="0"
       bleed="0" />
  </sodipodi:namedview>
  <path
     d="m 137.94137,11.626526 c 13.91996,10.715368 24.69349,25.025026 28.03125,42.644531 1.86439,17.271519 -2.71582,29.120819 -10.32227,44.312439 -8.21063,16.421664 -15.80683,32.999534 -22.9541,49.907294 -2.30159,5.40258 -4.68684,10.7676 -7.06738,16.13574 -3.64121,8.23864 -7.19519,16.5097 -10.6875,24.8125 -8.86804,21.06719 -18.101299,41.97088 -27.51343,62.80005 -3.246262,7.22379 -6.403785,14.48011 -9.498291,21.77026 -0.563257,1.32682 -0.563257,1.32682 -1.137893,2.68044 -0.569225,1.34118 -0.569225,1.34118 -1.149949,2.70946 -8.452719,19.9158 -17.329412,39.48439 -27.067626,58.81079 -1.089443,2.16258 -2.172467,4.32841 -3.248292,6.4978 -0.971813,1.9595 -1.958199,3.91188 -2.962402,5.85498 -2.606152,5.27676 -3.600601,8.40021 -2.109619,14.31372 0.658706,6.76585 0.500303,11.72469 -3.57031,17.34766 -3.68737,4.26163 -7.74627,7.31514 -13.38282,8.02343 -7.31349,0.14731 -12.57952,-0.21347 -18.0468699,-5.37109 -5.4898,-6.89743 -5.62195,-13.41938 -5,-22 1.96261,-5.99687 5.86903,-9.12142 11.1874999,-12.3125 1.8125,-0.6875 1.8125,-0.6875 4.8125,-0.6875 0.24218,-0.86528 0.24218,-0.86528 0.48926,-1.74805 2.04423,-7.07513 4.56078,-13.9031 7.26074,-20.75195 0.47534,-1.20777 0.95068,-2.41554 1.44043,-3.65991 4.66623,-11.75654 9.78683,-23.3041 14.934082,-34.85593 0.319848,-0.71794 0.639697,-1.43587 0.969238,-2.17557 0.481707,-1.08113 0.481707,-1.08113 0.973145,-2.18411 3.635349,-8.17624 7.164774,-16.39736 10.683105,-24.62448 0.31579,-0.73751 0.63158,-1.47503 0.95694,-2.23489 3.065422,-7.16079 6.11738,-14.32657 9.117279,-21.51511 5.084897,-12.17268 10.405045,-24.20796 15.925781,-36.1875 5.44133,-11.81259 10.758986,-23.66762 15.875,-35.625 0.308187,-0.72001 0.616373,-1.44002 0.933899,-2.18185 3.414805,-7.99327 6.765673,-16.0103 10.034853,-24.06424 1.17672,-2.89729 2.35356,-5.79452 3.53125,-8.69141 0.28578,-0.7032 0.57156,-1.40641 0.866,-2.13092 4.93271,-12.10104 10.37453,-23.87094 16.16915,-35.583928 0.47414,-0.967199 0.94827,-1.934399 1.43677,-2.930908 0.9396,-1.911411 1.89273,-3.816229 2.85889,-5.714355 2.93359,-5.994005 4.39953,-10.895321 4.23169,-17.577393 -0.0122,-0.816218 -0.0243,-1.632437 -0.0369,-2.473389 -0.37328,-8.892886 -3.35408,-16.337708 -9.90063,-22.526611 -10.40044,-7.846757 -21.05258,-9.666087 -33.750002,-8.5625 -9.558791,2.182612 -16.38,9.538223 -21.675781,17.398437 -4.989737,9.802846 -4.758195,19.189484 -4.763672,30.029297 -0.110217,7.323699 -0.512216,12.384634 -4.560547,18.572266 -3.510725,3.343544 -6.270369,4.272754 -11,4.500004 -4.709157,-0.21213 -7.436751,-1.27611 -11,-4.500004 -3.49684,-4.445212 -4.49983,-7.309667 -4.46094,-12.945313 10e-4,-0.976691 10e-4,-0.976691 0.003,-1.973114 0.006,-1.373294 0.0217,-2.746576 0.0465,-4.119659 0.0362,-2.060736 0.041,-4.119646 0.0405,-6.180664 0.11168,-21.32115 5.966287,-38.587203 20.734371,-54.238281 C 61.527149,11.755328 69.337721,7.3292196 78.254018,3.8765259 79.069995,3.5555493 79.885971,3.2345728 80.726674,2.9038696 99.166399,-3.2237551 122.25041,0.65596488 137.94137,11.626526 Z"
     fill="#FFFFFF"
     id="path2"
     inkscape:export-filename="path2.svg"
     inkscape:export-xdpi="96"
     inkscape:export-ydpi="96" />
  <path
     d="m 270.25387,63.876526 c 8.91,0 17.82,0 27,0 1.27216,5.208012 2.54305,10.416327 3.8125,15.625 0.19569,0.802572 0.39139,1.605145 0.59302,2.432037 2.56322,10.517385 5.10052,21.040617 7.6062,31.571867 0.24942,1.04743 0.49883,2.09485 0.75581,3.17401 1.23281,5.17838 2.46277,10.35742 3.68877,15.53742 0.45197,1.9009 0.90403,3.80178 1.3562,5.70263 0.20691,0.87855 0.41382,1.75709 0.627,2.66225 0.95944,4.25698 0.95944,4.25698 2.5605,8.29479 2.68692,-9.45824 5.37322,-18.91665 8.05874,-28.37528 1.24729,-4.39298 2.49479,-8.7859 3.74277,-13.17868 1.20652,-4.24683 2.41246,-8.493825 3.61803,-12.740926 0.45785,-1.612587 0.9159,-3.225118 1.37415,-4.837589 0.64654,-2.275109 1.29234,-4.550423 1.938,-6.825781 0.18558,-0.652407 0.37116,-1.304813 0.56236,-1.97699 1.60982,-5.677937 3.15281,-11.369923 4.70595,-17.064758 7.92,0 15.84,0 24,0 1.85643,4.95049 3.53743,9.581973 4.94531,14.624512 0.35047,1.248447 0.70093,2.496894 1.06201,3.783172 0.37261,1.340655 0.74517,2.681323 1.11768,4.022003 0.39176,1.399599 0.78385,2.799103 1.17627,4.198517 1.02769,3.66789 2.05135,7.33689 3.07397,11.00619 1.6351,5.86405 3.2767,11.72629 4.91767,17.58869 0.5677,2.03014 1.13388,4.06069 1.69977,6.09134 1.54212,5.52119 3.09097,11.04018 4.70263,16.54153 0.22962,0.78392 0.45923,1.56784 0.6958,2.37552 0.46519,1.77096 0.46519,1.77096 1.60889,2.76853 0.18935,-0.77436 0.37869,-1.54871 0.57378,-2.34653 1.80573,-7.38259 3.6142,-14.7645 5.42558,-22.1457 0.93062,-3.7926 1.86027,-7.58544 2.78751,-11.37887 3.85616,-15.773265 7.73157,-31.518576 12.21313,-47.128904 9.24,0 18.48,0 28,0 -0.87398,3.253594 -1.74797,6.507187 -2.64844,9.859375 -1.24281,4.630041 -2.48479,9.260306 -3.72656,13.890625 -0.32648,1.217308 -0.65295,2.434616 -0.98932,3.688812 -4.22641,15.765112 -8.43045,31.536012 -12.60443,47.315092 -0.20544,0.77659 -0.41088,1.55317 -0.62255,2.35329 -2.03282,7.68517 -4.06379,15.37082 -6.09192,23.05723 -0.7572,2.86915 -1.51511,5.73811 -2.27312,8.60705 -0.52379,1.98366 -1.0465,3.96761 -1.56917,5.95157 -0.3124,1.18234 -0.6248,2.36469 -0.94666,3.58287 -0.40845,1.54866 -0.40845,1.54866 -0.82516,3.12861 -0.51249,1.87112 -1.08918,3.725 -1.70267,5.56548 -8.91,0 -17.82,0 -27,0 -1.22977,-4.17141 -2.45953,-8.34281 -3.72656,-12.64062 -0.99899,-3.38761 -1.99807,-6.77518 -2.99721,-10.16274 -1.24812,-4.23183 -2.49587,-8.46377 -3.74331,-12.6958 -0.80426,-2.72805 -1.609,-5.45597 -2.41377,-8.18387 -0.5938,-2.01359 -1.18684,-4.0274 -1.77986,-6.04122 -1.7298,-5.86853 -3.47082,-11.73289 -5.2641,-17.5824 -0.28426,-0.93044 -0.56853,-1.86088 -0.86142,-2.81951 -0.51429,-1.67735 -1.03315,-3.3533 -1.55767,-5.02747 -1.06491,-3.47535 -1.6561,-6.17412 -1.6561,-9.84637 -0.66,0 -1.32,0 -2,0 -0.0922,0.60988 -0.18434,1.21977 -0.2793,1.84814 -1.28588,7.78247 -3.35319,15.27388 -5.57522,22.8306 -1.1222,3.81831 -2.22618,7.64186 -3.32908,11.46579 -0.22952,0.79516 -0.45905,1.59033 -0.69554,2.40959 -3.13883,10.9233 -6.05769,21.90703 -8.98414,32.88875 -0.20347,0.76061 -0.40693,1.52123 -0.61656,2.30489 -0.38119,1.42556 -0.7605,2.85164 -1.13761,4.27829 -1.27035,4.74955 -1.27035,4.74955 -2.38255,6.97395 -9.24,0 -18.48,0 -28,0 -0.74766,-3.00223 -1.49531,-6.00445 -2.26563,-9.09766 -0.73782,-2.95914 -1.47607,-5.91817 -2.21435,-8.87719 -0.50662,-2.03147 -1.01282,-4.06304 -1.51856,-6.09473 -0.7337,-2.94715 -1.46901,-5.8939 -2.20459,-8.84058 -0.21996,-0.88503 -0.43993,-1.77005 -0.66656,-2.6819 -1.4634,-5.85409 -3.00018,-11.68609 -4.56268,-17.51448 -1.95492,-7.31056 -3.81722,-14.64418 -5.67701,-21.9794 -0.37538,-1.47834 -0.75081,-2.95666 -1.12628,-4.43497 -0.77703,-3.06026 -1.5534,-6.12069 -2.32928,-9.18124 -0.99612,-3.92896 -1.99418,-7.857422 -2.99274,-11.78576 -0.77117,-3.034819 -1.54124,-6.069917 -2.31098,-9.1051 -0.36805,-1.450633 -0.73648,-2.901172 -1.10527,-4.351616 -0.51081,-2.009547 -1.02011,-4.019468 -1.529,-6.029499 -0.28994,-1.142784 -0.57988,-2.285568 -0.8786,-3.462982 -0.61847,-2.562897 -0.61847,-2.562897 -0.61847,-3.562897 z"
     fill="#FFFFFF"
     id="path3" />
  <path
     d="m 485.25387,63.876526 c 8.91,0 17.82,0 27,0 3.5625,9.5 3.5625,9.5 4.85156,12.938232 2.21381,5.904544 4.42865,11.808702 6.64552,17.712098 1.52226,4.053886 3.04391,8.108004 4.56542,12.162174 0.31438,0.83758 0.62876,1.67517 0.95267,2.53814 3.76959,10.04534 7.52659,20.09523 11.26217,30.15326 0.35418,0.95335 0.70835,1.9067 1.07326,2.88893 1.70422,4.58813 3.40679,9.17686 5.10667,13.76659 0.62853,1.69436 1.25735,3.38862 1.88648,5.08276 0.30139,0.81195 0.60279,1.62389 0.91331,2.46044 2.46535,6.61356 5.02007,13.19082 7.63588,19.74632 2.10706,5.33559 2.10706,5.33559 2.10706,7.55106 -8.91,0 -17.82,0 -27,0 -2.57473,-5.79313 -5.0437,-11.51087 -7.25,-17.4375 -0.40219,-1.05864 -0.40219,-1.05864 -0.8125,-2.13867 -1.9375,-5.17491 -1.9375,-5.17491 -1.9375,-7.42383 -15.84,0 -31.68,0 -48,0 -0.99,3.63 -1.98,7.26 -3,11 -0.99826,2.74644 -2.00841,5.43171 -3.125,8.125 -0.26426,0.65742 -0.52852,1.31484 -0.80078,1.99219 -1.92785,4.73644 -1.92785,4.73644 -3.07422,5.88281 -1.92668,0.0875 -3.85652,0.10697 -5.78516,0.0977 -1.75473,-0.005 -1.75473,-0.005 -3.54492,-0.01 -1.84755,-0.0126 -1.84755,-0.0126 -3.73242,-0.0254 -1.85335,-0.007 -1.85335,-0.007 -3.74414,-0.0137 -3.0645,-0.0118 -6.12891,-0.0283 -9.19336,-0.0488 2.5514,-9.22025 5.88592,-18.15502 9.1875,-27.125 0.31064,-0.84663 0.62129,-1.69325 0.94134,-2.56553 6.49001,-17.68427 13.08559,-35.32951 19.69099,-52.97094 0.80059,-2.13879 1.60048,-4.27785 2.40023,-6.41696 1.27887,-3.419906 2.56026,-6.838855 3.84349,-10.257124 0.69938,-1.864335 1.39674,-3.729428 2.09403,-5.594549 0.4322,-1.149467 0.8644,-2.298933 1.3097,-3.483231 0.55502,-1.479962 0.55502,-1.479962 1.12125,-2.989822 2.05337,-5.232408 4.24952,-10.407961 6.41147,-15.596648 z"
     fill="#FFFFFF"
     id="path4" />
  <path
     d="m 374.25387,236.87653 c 9.24,0 18.48,0 28,0 1.27875,2.64128 2.5575,5.28257 3.875,8.0039 1.26704,2.61191 2.53508,5.22334 3.80322,7.83472 0.86791,1.78855 1.7348,3.5776 2.60059,5.36719 1.25844,2.60072 2.52075,5.19955 3.78369,7.79809 0.56147,1.16349 0.56147,1.16349 1.13428,2.35048 3.73673,7.67119 7.77729,15.09699 11.80322,22.64562 8.91,-17.82 17.82,-35.64 27,-54 9.57,0 19.14,0 29,0 0,35.64 0,71.28 0,108 -7.26,0 -14.52,0 -22,0 -1.125,-11.25 -1.125,-11.25 -1.11353,-16.64307 1.2e-4,-1.80074 1.2e-4,-1.80074 2.3e-4,-3.63785 0.005,-1.26081 0.0103,-2.52163 0.0156,-3.82065 0.001,-1.31761 0.003,-2.63522 0.004,-3.99276 0.004,-3.4687 0.0136,-6.93736 0.0247,-10.40604 0.0103,-3.55326 0.0148,-7.10652 0.0198,-10.65979 0.0106,-6.94663 0.0277,-13.89324 0.0488,-20.83984 -0.66,0 -1.32,0 -2,0 -0.26426,0.85593 -0.52852,1.71187 -0.80078,2.59375 -1.22639,3.48342 -2.70862,6.61672 -4.38672,9.90625 -0.70226,1.38519 -1.40403,2.77063 -2.10547,4.15625 -0.41041,0.80824 -0.82081,1.61648 -1.24365,2.44921 -2.82841,5.59453 -5.62328,11.2059 -8.42423,16.81421 -1.67868,3.36063 -3.35897,6.72045 -5.03915,10.08033 -0.5775,1.155 -1.155,2.31 -1.75,3.5 -0.4125,0.825 -0.825,1.65 -1.25,2.5 -4.29,0 -8.58,0 -13,0 -5.98102,-11.47417 -11.30298,-23.22088 -16.51831,-35.05738 -0.27364,-0.61794 -0.54727,-1.23589 -0.8292,-1.87256 -0.75115,-1.6969 -1.49846,-3.39552 -2.24551,-5.09423 -1.54012,-3.38398 -1.54012,-3.38398 -4.40698,-7.97583 -0.66,22.44 -1.32,44.88 -2,68 -7.26,0 -14.52,0 -22,0 0,-35.64 0,-71.28 0,-108 z"
     fill="#FFFFFF"
     id="path5" />
  <path
     d="m 676.25387,63.876526 c 9.24,0 18.48,0 28,0 0.33,16.5 0.66,33 1,50.000004 10.50234,-12.75285 20.99387,-25.510461 31.39673,-38.343998 0.52392,-0.64574 1.04784,-1.29148 1.58764,-1.956787 0.46117,-0.56888 0.92233,-1.137759 1.39746,-1.723877 0.534,-0.651863 1.06799,-1.303726 1.61817,-1.975342 0.72824,-1.054212 1.45648,-2.108423 2.20679,-3.19458 2.79321,-2.80542 2.79321,-2.80542 6.39013,-3.486572 1.37041,9.4e-4 2.74106,0.0343 4.11011,0.09521 0.72539,0.0085 1.45079,0.01698 2.19817,0.02573 2.30398,0.03344 4.60439,0.10868 6.9073,0.185211 1.56701,0.03011 3.13407,0.05749 4.70117,0.08203 3.83014,0.06595 7.65763,0.169391 11.48633,0.292969 -3.88451,5.317613 -7.95489,10.377285 -12.3125,15.3125 -4.56324,5.214484 -9.01767,10.493373 -13.37891,15.878906 -2.72206,3.311615 -5.51107,6.56076 -8.30859,9.8086 -1.01457,1.18468 -2.02889,2.36958 -3.04297,3.55468 -1.90535,2.22613 -3.82605,4.43741 -5.75781,6.64063 -0.82887,0.96679 -1.65774,1.93359 -2.51172,2.92969 -0.73863,0.8482 -1.47727,1.6964 -2.23828,2.57031 -1.67955,2.12909 -1.67955,2.12909 -1.20166,4.23413 0.82354,2.26621 1.7952,3.66153 3.34228,5.50415 0.53182,0.64203 1.06364,1.28407 1.61157,1.94556 0.57291,0.67925 1.14582,1.35851 1.73609,2.05835 1.19668,1.44417 2.39198,2.8895 3.58594,4.33593 0.59264,0.7164 1.18529,1.4328 1.79589,2.1709 2.31145,2.82719 4.53015,5.71312 6.74317,8.61817 4.05461,5.3143 8.20121,10.54571 12.38672,15.75732 3.56175,4.43724 7.09821,8.89337 10.61328,13.36768 0.45302,0.57613 0.90605,1.15226 1.3728,1.74585 1.19197,1.51929 2.37857,3.04279 3.5647,4.56665 0.59684,0.74895 1.19367,1.49789 1.80859,2.26953 1.19141,1.73047 1.19141,1.73047 1.19141,3.73047 -4.67677,0.29903 -9.34787,0.51536 -14.03198,0.65918 -1.58856,0.06 -3.17645,0.1416 -4.7627,0.24609 -13.15281,0.84403 -13.15281,0.84403 -18.12891,-3.39697 -2.29478,-3.0675 -4.20904,-6.16693 -6.07641,-9.5083 -0.90074,-1.22338 -1.82617,-2.42969 -2.79297,-3.60156 -1.72087,-2.17285 -3.44003,-4.34693 -5.15625,-6.52344 -0.48388,-0.61359 -0.96776,-1.22719 -1.46631,-1.85937 -3.04183,-3.86955 -6.06274,-7.75539 -9.08447,-11.64063 -0.59966,-0.77038 -1.19931,-1.54076 -1.81714,-2.33448 -0.56566,-0.72751 -1.13131,-1.45503 -1.71411,-2.20459 -0.5008,-0.64404 -1.0016,-1.28809 -1.51758,-1.95166 -1.03864,-1.34862 -2.03861,-2.72738 -3.01172,-4.12402 -0.47502,-0.58088 -0.95004,-1.16177 -1.43945,-1.76025 -0.66,0 -1.32,0 -2,0 -2.08383,3.12574 -2.2589,3.90452 -2.31885,7.47143 -0.0199,0.90071 -0.0397,1.80142 -0.0602,2.72942 -0.0116,0.96883 -0.0231,1.93767 -0.035,2.93586 -0.0194,0.99458 -0.0387,1.98916 -0.0587,3.01387 -0.0598,3.17889 -0.10619,6.35781 -0.15225,9.53692 -0.0382,2.15431 -0.0772,4.30861 -0.11719,6.46289 -0.0977,5.28312 -0.17728,10.56608 -0.25781,15.84961 -9.24,0 -18.48,0 -28,0 0,-41.91 0,-83.82 0,-127.000006 z"
     fill="#FFFFFF"
     id="path6" />
  <path
     d="m 617.25387,236.87653 c 60.07489,0 60.07489,0 71,10 2.32887,2.84082 4.27925,5.75597 6,9 0.37512,0.7064 0.75023,1.41281 1.13672,2.14062 2.76132,9.14611 2.60358,23.29396 -1.7461,31.85547 -4.62899,6.67043 -9.91804,10.9118 -17.39062,14.00391 -0.66,0 -1.32,0 -2,0 2.12327,3.50105 4.24877,7.00074 6.375,10.5 0.9477,1.56077 0.9477,1.56077 1.91455,3.15307 4.21541,6.92913 8.47672,13.826 12.86426,20.64771 2.84619,4.48242 2.84619,4.48242 2.84619,6.69922 -8.24663,1.60296 -16.93222,2.87364 -25,0 -6.67344,-5.74509 -10.3505,-13.94195 -14.28174,-21.66993 -1.7654,-3.42143 -3.56304,-6.78358 -5.52686,-10.0957 -0.56388,-0.98259 -1.12776,-1.96518 -1.70874,-2.97754 -3.16566,-3.32787 -3.16566,-3.32787 -12.48266,-3.25683 0,12.54 0,25.08 0,38 -7.26,0 -14.52,0 -22,0 0,-35.64 0,-71.28 0,-108 z"
     fill="#FFFFFF"
     id="path7" />
  <path
     d="m 539.25387,236.87653 c 7.92,0 15.84,0 24,0 1.31871,3.58101 2.63742,7.16203 3.99609,10.85156 0.87009,2.36231 1.74021,4.72462 2.61035,7.08691 1.65753,4.4999 3.31463,8.99994 4.97123,13.50018 4.83874,13.14394 9.68541,26.28475 14.56686,39.41291 0.7879,2.12156 1.57574,4.24314 2.36353,6.36474 1.1139,2.9998 2.22903,5.99911 3.34835,8.99689 1.02508,2.74544 2.04571,5.49251 3.06546,8.23993 0.30006,0.79951 0.60011,1.59902 0.90926,2.42276 0.27326,0.73866 0.54651,1.47733 0.82805,2.23837 0.23644,0.63416 0.47288,1.26832 0.71649,1.9217 0.72211,2.27165 1.15685,4.62668 1.62433,6.96405 -7.59,0 -15.18,0 -23,0 -1.32,-3.23812 -2.64,-6.47625 -4,-9.8125 -0.41766,-1.01683 -0.83531,-2.03366 -1.26563,-3.0813 -0.32484,-0.80462 -0.64968,-1.60924 -0.98437,-2.43824 -0.33516,-0.82218 -0.67031,-1.64436 -1.01563,-2.49145 -0.73437,-2.17651 -0.73437,-2.17651 -0.73437,-5.17651 -13.2,0.33 -26.4,0.66 -40,1 -4.46784,10.8512 -4.46784,10.8512 -8,22 -7.92,0 -15.84,0 -24,0 4.44686,-12.8151 9.0197,-25.56108 13.8125,-38.25 0.63314,-1.68155 1.26603,-3.3632 1.89868,-5.04493 1.3581,-3.6097 2.71723,-7.21901 4.0769,-10.82812 3.65215,-9.69872 7.28682,-19.404 10.92417,-29.10828 1.95864,-5.22518 3.91815,-10.45004 5.87759,-15.67492 1.12535,-3.00094 2.25071,-6.00188 3.41016,-9.09375 z"
     fill="#FFFFFF"
     id="path8" />
  <path
     d="m 313.37887,234.62653 c 1.49273,-0.0309 1.49273,-0.0309 3.01562,-0.0625 11.89505,-0.0621 20.27415,2.92561 28.80469,11.19921 4.13444,4.40257 6.30304,8.34314 8.05469,14.11329 -17.33607,9 -17.33607,9 -23,9 -0.21914,-0.5311 -0.43828,-1.06219 -0.66406,-1.60938 -2.27003,-5.05681 -4.28905,-7.70611 -9.33594,-10.39062 -4.74899,-1.583 -8.5646,-1.55208 -13.25,0.25 -2.80824,1.78706 -4.26737,2.78473 -5.75,5.75 -0.38521,4.31435 -0.31031,7.31937 2,11 5.15158,3.79677 11.49353,4.99925 17.625,6.3125 11.20655,2.628 22.82109,6.02328 30.10937,15.59375 4.66262,7.71347 5.43651,15.60318 3.57422,24.33593 -2.81886,10.21397 -6.87074,16.90232 -15.94922,22.50782 -11.23234,5.95091 -26.36365,7.40855 -38.60937,4.125 -9.62691,-3.38842 -17.36474,-8.55344 -22.22266,-17.625 -3.52734,-7.38876 -3.52734,-7.38876 -3.52734,-12.25 3.28989,-1.17172 6.58219,-2.33652 9.875,-3.5 0.93715,-0.33387 1.8743,-0.66774 2.83984,-1.01172 0.8959,-0.31582 1.7918,-0.63164 2.71485,-0.95703 1.24112,-0.4399 1.24112,-0.4399 2.50732,-0.88868 2.06299,-0.64257 2.06299,-0.64257 4.06299,-0.64257 0.24234,0.60328 0.48469,1.20656 0.73437,1.82812 2.29018,5.4612 4.15401,9.39381 9.45313,12.42188 7.19494,1.91865 14.12062,0.95046 20.8125,-2.25 3.05596,-2.50033 2.99414,-3.95389 3.5,-7.9375 -0.1638,-3.04446 -0.53164,-4.11406 -2.1875,-6.8125 -4.48924,-3.76194 -10.79978,-4.73817 -16.3125,-6.25 -25.0637,-7.17059 -25.0637,-7.17059 -32,-17 -2.77671,-5.58311 -3.52119,-10.75533 -3.4375,-16.9375 0.0125,-1.18796 0.0125,-1.18796 0.0251,-2.39991 0.17236,-5.95339 0.93677,-10.69158 4.41235,-15.66259 0.48598,-0.70383 0.97196,-1.40766 1.47266,-2.13282 8.02021,-10.2765 18.3867,-12.05508 30.65234,-12.11718 z"
     fill="#FFFFFF"
     id="path9" />
  <path
     d="m 196.25387,120.87653 c 21.50295,10.75147 35.15601,40.63915 43,62 0.24234,0.65967 0.48469,1.31935 0.73437,1.99902 13.47893,37.60994 9.58963,80.77934 -6.98437,116.68848 -4.1458,8.65808 -9.10287,16.56462 -14.75,24.3125 -0.59813,0.84176 -1.19625,1.68352 -1.8125,2.55078 -6.25888,8.31257 -15.77735,20.74414 -25.1875,25.44922 -5.6913,0.54724 -8.56117,-0.40666 -13,-4 -1.65714,-3.31427 -1.72911,-6.4432 -1,-10 2.19307,-3.66546 5.39062,-6.44876 8.44629,-9.39404 17.07673,-16.4947 28.36468,-34.91456 35.55371,-57.60596 0.21173,-0.6455 0.42346,-1.291 0.6416,-1.95605 6.89712,-22.09046 6.2273,-52.05198 -0.6416,-74.04395 -0.21431,-0.69207 -0.42861,-1.38414 -0.64942,-2.09717 -6.48774,-20.17622 -16.75181,-37.7906 -31.98339,-52.5044 -3.77946,-3.82935 -6.31809,-6.94345 -6.42969,-12.52343 2.49649,-6.75522 7.13395,-9.54121 14.0625,-8.875 z"
     fill="#0b0c0c"
     id="path10" />
  <path
     d="m 577.25387,63.876526 c 9.24,0 18.48,0 28,0 0,33.66 0,67.320004 0,102.000004 16.5,0 33,0 50,0 0,8.25 0,16.5 0,25 -10.02228,0.0225 -20.04455,0.0409 -30.06685,0.0518 -4.65326,0.005 -9.30651,0.0123 -13.95976,0.0236 -4.48684,0.0108 -8.97365,0.0168 -13.4605,0.0194 -1.71569,0.002 -3.43139,0.005 -5.14708,0.0108 -2.39466,0.007 -4.78925,0.008 -7.18393,0.008 -1.07461,0.005 -1.07461,0.005 -2.17094,0.0109 -4.89689,-0.0104 -4.89689,-0.0104 -6.01094,-1.1245 -0.0961,-1.63223 -0.12188,-3.26864 -0.12026,-4.9037 -10e-4,-1.06156 -0.003,-2.12312 -0.004,-3.21684 0.004,-1.1746 0.007,-2.3492 0.0109,-3.55939 -1.4e-4,-1.2291 -2.9e-4,-2.45819 -4.4e-4,-3.72453 5.8e-4,-3.38003 0.006,-6.75999 0.0126,-10.14 0.006,-3.52876 0.007,-7.05751 0.008,-10.58627 0.003,-6.68651 0.0113,-13.373 0.0214,-20.0595 0.0112,-7.61052 0.0167,-15.22104 0.0217,-22.83156 0.0105,-15.659414 0.0288,-31.318808 0.0503,-46.978214 z"
     fill="#0a0b0b"
     id="path11" />
  <path
     d="m 706.25387,236.87653 c 26.4,0 52.8,0 80,0 0,6.6 0,13.2 0,20 -9.24,0 -18.48,0 -28,0 0,29.04 0,58.08 0,88 -7.92,0 -15.84,0 -24,0 0,-28.71 0,-57.42 0,-87 -9.24,0 -18.48,0 -28,0 0,-6.93 0,-13.86 0,-21 z"
     fill="#FFFFFF"
     id="path12" />
  <path
     d="m 165.25387,156.87653 c 3.07222,1.58129 5.46861,3.66694 8,6 0.57363,0.48339 1.14726,0.96679 1.73828,1.46484 17.14011,15.4852 25.58612,41.91581 26.77734,64.25391 1.10224,30.30053 -7.3818,55.70034 -28.14257,78.03125 -10.84972,11.36999 -10.84972,11.36999 -16.68555,11.625 -3.83256,-0.0247 -4.51169,-0.23581 -7.6875,-2.75 -3.12027,-4.09535 -3.51887,-6.43631 -3,-11.625 2.50644,-3.75966 5.37815,-6.35079 8.8125,-9.25 14.17596,-12.14701 23.38838,-30.19192 25.1875,-48.75 1.55092,-21.59365 -3.70433,-44.59578 -16.55078,-62.21875 -3.08568,-3.504 -6.37527,-5.95202 -10.38282,-8.31641 -2.32475,-1.64798 -3.08273,-2.81929 -4.0664,-5.46484 -0.45973,-3.02105 -0.60026,-5.03826 1.05078,-7.6836 4.4129,-5.42826 8.16097,-6.44778 14.94922,-5.3164 z"
     fill="#FFFFFF"
     id="path13" />
  <path
     d="m 141.25387,199.87653 c 6.23559,3.00279 8.69099,8.66976 11,14.88281 4.53017,14.12141 5.25614,30.24533 -0.44141,44.09375 -2.33161,4.52298 -5.18172,8.24196 -8.55859,12.02344 -0.87637,1.12393 -1.75152,2.24881 -2.625,3.375 -3.48068,3.84706 -6.17016,5.75978 -11.375,6.0625 -4.05586,-0.14568 -6.14905,-1.50016 -9,-4.4375 -1.6517,-3.30339 -1.77187,-6.45812 -1,-10 2.00451,-3.00127 4.44872,-5.45972 7,-8 5.76597,-6.56681 7.52905,-12.33176 7.375,-20.875 -0.008,-0.79431 -0.016,-1.58861 -0.0242,-2.40699 -0.1672,-6.87214 -1.2178,-12.47896 -5.03833,-18.28051 -1.87376,-3.47985 -2.03949,-6.56803 -1.3125,-10.4375 3.61547,-5.66425 7.34474,-7.19361 14,-6 z"
     fill="#FFFFFF"
     id="path14" />
  <path
     d="m 639.25387,256.87653 c 3.465,-0.0619 6.93,-0.12375 10.5,-0.1875 1.61358,-0.041 1.61358,-0.041 3.25976,-0.0828 6.14361,-0.0527 10.67896,0.60035 16.24024,3.27027 4.00225,4.20749 5.32372,6.99451 5.20703,12.83984 -0.34466,3.59619 -1.3625,6.06611 -3.20703,9.16016 -4.61487,3.60025 -9.3222,5.13108 -15.10547,5.09765 -1.32874,-0.004 -1.32874,-0.004 -2.68433,-0.008 -1.12124,-0.009 -2.24248,-0.0182 -3.3977,-0.0276 -3.56813,-0.0206 -7.13625,-0.0412 -10.8125,-0.0625 0,-9.9 0,-19.8 0,-30 z"
     fill="#f9f9f7"
     id="path15" />
  <path
     d="m 498.25387,95.876526 c 2.095,2.095005 2.57503,3.200379 3.51221,5.943114 0.4202,1.21653 0.4202,1.21653 0.8489,2.45763 0.29591,0.87709 0.59182,1.75418 0.8967,2.65785 0.30792,0.90009 0.61583,1.80019 0.93308,2.72755 0.65,1.90471 1.29706,3.81041 1.94143,5.71703 0.98838,2.92161 1.98785,5.83925 2.98877,8.75659 0.62958,1.84938 1.2585,3.69899 1.88672,5.54883 0.29996,0.87507 0.59992,1.75013 0.90897,2.65172 0.27383,0.81417 0.54767,1.62834 0.8298,2.46718 0.24268,0.71566 0.48535,1.43133 0.73538,2.16868 0.51804,1.90383 0.51804,1.90383 0.51804,4.90383 -10.56,0 -21.12,0 -32,0 1.37465,-6.18595 2.84264,-11.83197 5.0039,-17.71875 0.28335,-0.78396 0.5667,-1.56791 0.85863,-2.37561 0.59324,-1.6378 1.18914,-3.27464 1.78761,-4.91053 0.91937,-2.51428 1.82956,-5.03175 2.73853,-7.5498 0.57955,-1.59655 1.15961,-3.19291 1.74023,-4.78906 0.27293,-0.75407 0.54585,-1.50813 0.82705,-2.28504 1.92798,-5.255142 1.92798,-5.255142 3.04405,-6.371214 z"
     fill="#f9faf8"
     id="path16" />
  <path
     d="m 550.25387,264.87653 c 0.66,0 1.32,0 2,0 1.85334,5.39281 3.7047,10.78629 5.5542,16.18042 0.62998,1.83645 1.26051,3.67271 1.8916,5.50878 0.90491,2.63306 1.80788,5.26678 2.71045,7.90064 0.28436,0.82604 0.56872,1.65208 0.86169,2.50316 1.98206,5.79312 1.98206,5.79312 1.98206,6.907 -9.24,0 -18.48,0 -28,0 1.7521,-5.84033 3.48789,-11.57549 5.48047,-17.32032 0.21771,-0.62953 0.43543,-1.25907 0.65974,-1.90768 0.68051,-1.96634 1.36384,-3.93169 2.04729,-5.897 0.46829,-1.3515 0.93639,-2.70306 1.4043,-4.05469 1.13391,-3.27419 2.27034,-6.5475 3.4082,-9.82031 z"
     fill="#f9f9f7"
     id="path17" />
  <path
     d="m 676.25387,63.876526 c 9.24,0 18.48,0 28,0 0,16.5 0,33 0,50.000004 -0.99,0.495 -0.99,0.495 -2,1 0,-16.170004 0,-32.340004 0,-49.000004 -7.92,0 -15.84,0 -24,0 0,40.590004 0,81.180004 0,123.000004 7.59,0 15.18,0 23,0 0,0.33 0,0.66 0,1 -8.25,0 -16.5,0 -25,0 0,-41.58 0,-83.16 0,-126.000004 z"
     fill="#FFFFFF"
     id="path18" />
  <path
     d="m 577.25387,63.876526 c 0.33,0 0.66,0 1,0 0,41.250004 0,82.500004 0,125.000004 24.75,0 49.5,0 75,0 0,-6.93 0,-13.86 0,-21 -15.51,0 -31.02,0 -47,0 0,-0.33 0,-0.66 0,-1 16.17,-0.33 32.34,-0.66 49,-1 0,8.25 0,16.5 0,25 -10.02228,0.0225 -20.04455,0.0409 -30.06685,0.0518 -4.65326,0.005 -9.30651,0.0123 -13.95976,0.0236 -4.48684,0.0108 -8.97365,0.0168 -13.4605,0.0194 -1.71569,0.002 -3.43139,0.005 -5.14708,0.0108 -2.39466,0.007 -4.78925,0.008 -7.18393,0.008 -1.07461,0.005 -1.07461,0.005 -2.17094,0.0109 -4.89689,-0.0104 -4.89689,-0.0104 -6.01094,-1.1245 -0.0961,-1.63223 -0.12188,-3.26864 -0.12026,-4.9037 -10e-4,-1.06156 -0.003,-2.12312 -0.004,-3.21684 0.004,-1.1746 0.007,-2.3492 0.0109,-3.55939 -1.4e-4,-1.2291 -2.9e-4,-2.45819 -4.4e-4,-3.72453 5.8e-4,-3.38003 0.006,-6.75999 0.0126,-10.14 0.006,-3.52876 0.007,-7.05751 0.008,-10.58627 0.003,-6.68651 0.0113,-13.373 0.0214,-20.0595 0.0112,-7.61052 0.0167,-15.22104 0.0217,-22.83156 0.0105,-15.659413 0.0281,-31.318811 0.0503,-46.978214 z"
     fill="#FFFFFF"
     id="path19" />
  <path
     d="m 374.25387,239.87653 c 0.66,0 1.32,0 2,0 0,33.99 0,67.98 0,103 5.94,0 11.88,0 18,0 -0.0116,-1.79695 -0.0232,-3.59391 -0.0352,-5.44532 -0.0907,-21.19987 0.386,-42.36555 1.03516,-63.55468 0.33,0 0.66,0 1,0 0,23.43 0,46.86 0,71 -7.26,0 -14.52,0 -22,0 0,-34.65 0,-69.3 0,-105 z"
     fill="#FFFFFF"
     id="path20" />
  <path
     d="m 617.25387,236.87653 c 16.17,0 32.34,0 49,0 0.495,0.99 0.495,0.99 1,2 -2.352,1.176 -3.73735,1.12084 -6.35791,1.11352 -1.35118,-1.1e-4 -1.35118,-1.1e-4 -2.72965,-2.3e-4 -0.97399,-0.005 -1.94799,-0.0103 -2.9515,-0.0156 -0.996,-0.001 -1.99199,-0.003 -3.01816,-0.004 -3.18929,-0.006 -6.37851,-0.0182 -9.56778,-0.0309 -2.15885,-0.005 -4.31771,-0.01 -6.47656,-0.0137 -5.29951,-0.011 -10.59897,-0.0278 -15.89844,-0.0488 -0.8032,2.83562 -1.13259,5.37166 -1.15822,8.31536 -0.0147,1.283 -0.0147,1.283 -0.0297,2.59191 -0.006,0.93004 -0.0115,1.86008 -0.0174,2.81831 -0.01,0.9857 -0.0198,1.97139 -0.03,2.98696 -0.0316,3.25725 -0.0564,6.51452 -0.0811,9.77183 -0.0206,2.25873 -0.0416,4.51746 -0.063,6.77618 -0.0552,5.94459 -0.10461,11.88922 -0.15285,17.83387 -0.0502,6.06621 -0.10591,12.13237 -0.16113,18.19854 -0.10755,11.90231 -0.209,23.80465 -0.30664,35.70704 -0.33,0 -0.66,0 -1,0 0,-35.64 0,-71.28 0,-108 z"
     fill="#FFFFFF"
     id="path21" />
  <path
     d="m 456.25387,236.87653 c 9.57,0 19.14,0 29,0 0.0451,8.83155 0.0818,17.66303 0.10362,26.49467 0.0104,4.10061 0.0246,8.20115 0.0473,12.30171 0.0217,3.95517 0.0337,7.91026 0.0389,11.86548 0.004,1.51113 0.0109,3.02226 0.0217,4.53335 0.0145,2.11195 0.0165,4.22356 0.0156,6.33555 0.004,1.20357 0.009,2.40714 0.0135,3.64718 -0.24051,2.82206 -0.24051,2.82206 -2.24051,4.82206 0,-22.44 0,-44.88 0,-68 -8.91,0 -17.82,0 -27,0 0,-0.66 0,-1.32 0,-2 z"
     fill="#FFFFFF"
     id="path22" />
  <path
     d="m 703.25387,144.87653 c 0.33,0 0.66,0 1,0 0,15.18 0,30.36 0,46 -9.24,0 -18.48,0 -28,0 0.66,-0.99 1.32,-1.98 2,-3 2.33838,-0.34058 2.33838,-0.34058 5.22656,-0.29297 1.54688,0.0145 1.54688,0.0145 3.125,0.0293 1.08024,0.0251 2.16047,0.0503 3.27344,0.0762 1.08797,0.0135 2.17594,0.0271 3.29687,0.041 2.6932,0.0354 5.38542,0.0848 8.07813,0.14648 -0.008,-1.10904 -0.008,-1.10904 -0.0159,-2.24048 -0.18755,-30.51845 -0.18755,-30.51845 1.01587,-39.75952 0.33,-0.33 0.66,-0.66 1,-1 z"
     fill="#FFFFFF"
     id="path23" />
  <path
     d="m 484.25387,304.87653 c 0.33,0 0.66,0 1,0 0,13.2 0,26.4 0,40 -7.26,0 -14.52,0 -22,0 0,-12.21 0,-24.42 0,-37 0.33,0 0.66,0 1,0 0,11.55 0,23.1 0,35 6.27,0 12.54,0 19,0 -0.0116,-2.57555 -0.0232,-5.1511 -0.0352,-7.80469 -0.008,-2.48877 -0.0139,-4.97754 -0.0198,-7.46631 -0.005,-1.73243 -0.0119,-3.46485 -0.0205,-5.19727 -0.0121,-2.48715 -0.0178,-4.97425 -0.0222,-7.46142 -0.005,-0.77714 -0.0103,-1.55427 -0.0156,-2.35495 -5.7e-4,-5.48762 -5.7e-4,-5.48762 1.1133,-7.71536 z"
     fill="#FFFFFF"
     id="path24" />
  <path
     d="m 511.25387,135.87653 c 0.66,0 1.32,0 2,0 0.33,1.98 0.66,3.96 1,6 -10.56,0 -21.12,0 -32,0 0,-0.99 0,-1.98 0,-3 9.24,0 18.48,0 28,0 0.33,-0.99 0.66,-1.98 1,-3 z"
     fill="#e8e8e8"
     id="path25" />
  <path
     d="m 485.25387,63.876526 c 8.91,0 17.82,0 27,0 -0.33,0.99 -0.66,1.98 -1,3 -8.25,0 -16.5,0 -25,0 -0.66,1.65 -1.32,3.3 -2,5 -0.66,-0.33 -1.32,-0.66 -2,-1 0.99,-2.31 1.98,-4.62 3,-7 z"
     fill="#FFFFFF"
     id="path26" />
  <path
     d="m 412.25387,63.876526 c 9.24,0 18.48,0 28,0 -0.66,1.65 -1.32,3.3 -2,5 -0.33,-0.99 -0.66,-1.98 -1,-3 -8.25,0 -16.5,0 -25,0 0,-0.66 0,-1.32 0,-2 z"
     fill="#FFFFFF"
     id="path27" />
  <path
     d="m 270.25387,63.876526 c 8.91,0 17.82,0 27,0 -0.33,0.99 -0.66,1.98 -1,3 -11.385,-0.495 -11.385,-0.495 -23,-1 -0.33,1.32 -0.66,2.64 -1,4 -0.66,-1.98 -1.32,-3.96 -2,-6 z"
     fill="#FFFFFF"
     id="path28" />
  <path
     d="m 374.25387,236.87653 c 9.24,0 18.48,0 28,0 -0.33,0.99 -0.66,1.98 -1,3 -8.91,0 -17.82,0 -27,0 0,-0.99 0,-1.98 0,-3 z"
     fill="#FFFFFF"
     id="path29" />
  <path
     d="m 531.25387,187.87653 c 8.91,0 17.82,0 27,0 0.33,0.99 0.66,1.98 1,3 -8.91,0 -17.82,0 -27,0 -0.33,-0.99 -0.66,-1.98 -1,-3 z"
     fill="#FFFFFF"
     id="path30" />
  <path
     d="m 599.25387,339.87653 c 0.66,0 1.32,0 2,0 0.33,1.65 0.66,3.3 1,5 -7.59,0 -15.18,0 -23,0 -0.33,-1.32 -0.66,-2.64 -1,-4 0.66,0 1.32,0 2,0 0,0.66 0,1.32 0,2 9.405,-0.495 9.405,-0.495 19,-1 0,-0.66 0,-1.32 0,-2 z"
     fill="#FFFFFF"
     id="path31" />
  <path
     d="m 439.25387,187.87653 c 8.58,0 17.16,0 26,0 -0.33,0.99 -0.66,1.98 -1,3 -8.58,0 -17.16,0 -26,0 0.33,-0.99 0.66,-1.98 1,-3 z"
     fill="#FFFFFF"
     id="path32" />
  <path
     d="m 672.25387,341.87653 c 8.25,0 16.5,0 25,0 0.33,0.99 0.66,1.98 1,3 -8.25,0 -16.5,0 -25,0 -0.33,-0.99 -0.66,-1.98 -1,-3 z"
     fill="#FFFFFF"
     id="path33" />
  <path
     d="m 299.25387,74.876526 c 0.33,0 0.66,0 1,0 0.83698,3.45746 1.66896,6.916105 2.5,10.375 0.23847,0.984844 0.47695,1.969687 0.72265,2.984375 0.22559,0.941016 0.45118,1.882031 0.6836,2.851562 0.20947,0.869312 0.41894,1.738624 0.63476,2.634278 0.45899,2.154785 0.45899,2.154785 0.45899,4.154785 -0.99,0 -1.98,0 -3,0 -0.12117,-0.712852 -0.24235,-1.425703 -0.36719,-2.160156 -1.10819,-6.429469 -1.10819,-6.429469 -2.82031,-12.714844 -0.83546,-3.213303 -0.76445,-4.983561 0.1875,-8.125 z"
     fill="#FFFFFF"
     id="path34" />
  <path
     d="m 346.25387,63.876526 c 3.31248,-0.02888 6.62493,-0.04676 9.9375,-0.0625 0.94553,-0.0084 1.89105,-0.01676 2.86523,-0.02539 1.34868,-0.0048 1.34868,-0.0048 2.72461,-0.0098 1.24898,-0.0079 1.24898,-0.0079 2.5232,-0.01587 1.94946,0.113525 1.94946,0.113525 2.94946,1.113525 0.0406,1.666171 0.0427,3.333881 0,5 -0.66,-0.99 -1.32,-1.98 -2,-3 -2.7048,-0.332581 -5.22678,-0.512434 -7.9375,-0.5625 -7.68131,-0.183374 -7.68131,-0.183374 -11.0625,-2.4375 z"
     fill="#FFFFFF"
     id="path35" />
  <path
     d="m 402.25387,102.87653 c 0.99,0 1.98,0 3,0 -0.28485,1.7303 -0.5782,3.4592 -0.875,5.1875 -0.16242,0.96293 -0.32485,1.92586 -0.49219,2.91796 -0.77516,3.54565 -2.01408,6.65707 -3.63281,9.89454 -0.66,0 -1.32,0 -2,0 1.32,-5.94 2.64,-11.88 4,-18 z"
     fill="#121212"
     id="path36" />
  <path
     d="m 2.2538681,357.87653 c 0.66,0.33 1.32,0.66 2,1 -0.1637109,0.53109 -0.3274219,1.06218 -0.4960938,1.60937 -0.61747,2.92939 -0.5989254,5.64886 -0.5664062,8.64063 0.013535,1.61648 0.013535,1.61648 0.027344,3.26562 0.011601,0.81984 0.023203,1.63969 0.035156,2.48438 -0.99,0 -1.98,0 -3,0 -0.054417,-1.89551 -0.09298,-3.79148 -0.125,-5.6875 -0.023203,-1.05575 -0.046406,-2.11149 -0.070312,-3.19922 0.1967247,-3.1358 0.8647355,-5.28974 2.195312,-8.11328 z"
     fill="#131314"
     id="path37" />
  <path
     d="m 179.25387,251.87653 c 0.66,0.33 1.32,0.66 2,1 -0.38833,5.90528 -1.16053,10.75789 -4,16 -0.99,0.33 -1.98,0.66 -3,1 0.19336,-0.62907 0.38672,-1.25813 0.58594,-1.90625 1.62327,-5.33592 3.10866,-10.67135 4.41406,-16.09375 z"
     fill="#FFFFFF"
     id="path38" />
  <path
     d="m 298.25387,343.87653 c 1.65,0 3.3,0 5,0 0,0.66 0,1.32 0,2 0.66,-0.33 1.32,-0.66 2,-1 2.8837,-0.072 5.7424,-0.0929 8.625,-0.0625 0.8018,0.005 1.60359,0.009 2.42969,0.0137 1.9818,0.0118 3.96356,0.0297 5.94531,0.0488 0,0.33 0,0.66 0,1 -4.62,0 -9.24,0 -14,0 0,0.66 0,1.32 0,2 -3.63,-0.66 -7.26,-1.32 -11,-2 0.33,-0.66 0.66,-1.32 1,-2 z"
     fill="#151616"
     id="path39" />
  <path
     d="m 305.25387,100.87653 c 2.18278,3.68226 2.85584,7.5981 3.625,11.75 0.13406,0.69738 0.26812,1.39476 0.40625,2.11328 0.32818,1.71123 0.64918,3.42385 0.96875,5.13672 -0.66,0 -1.32,0 -2,0 -2.07048,-5.47197 -3.34478,-11.18849 -4,-17 0.33,-0.66 0.66,-1.32 1,-2 z"
     fill="#181818"
     id="path40" />
  <path
     d="m 198.25387,210.87653 c 3.28281,5.6902 3.10993,11.62378 3,18 -0.66,-0.33 -1.32,-0.66 -2,-1 -0.66797,-2.80079 -0.66797,-2.80079 -1.1875,-6.3125 -0.17918,-1.15114 -0.35836,-2.30227 -0.54297,-3.48829 -0.23674,-2.81 -0.18329,-4.57458 0.73047,-7.19921 z"
     fill="#131313"
     id="path41" />
  <path
     d="m 555.25387,183.87653 c 0.66,0 1.32,0 2,0 0.5625,1.9375 0.5625,1.9375 1,4 -1,1 -1,1 -3.31665,1.11352 -1.00023,-0.005 -2.00047,-0.0105 -3.03101,-0.0159 -1.07959,-0.003 -2.15918,-0.006 -3.27148,-0.01 -1.13631,-0.008 -2.27262,-0.0168 -3.44336,-0.0254 -1.14018,-0.005 -2.28035,-0.009 -3.45508,-0.0137 -2.82753,-0.0118 -5.65495,-0.0283 -8.48242,-0.0488 0,-0.33 0,-0.66 0,-1 7.26,-0.33 14.52,-0.66 22,-1 0,-0.99 0,-1.98 0,-3 z"
     fill="#121213"
     id="path42" />
  <path
     d="m 196.25387,120.87653 c 0.66,0.66 1.32,1.32 2,2 -0.59168,0.12117 -1.18336,0.24234 -1.79297,0.36718 -4.24507,0.90026 -8.23143,1.83738 -12.20703,3.63282 0.94724,-2.36811 1.65291,-3.75208 3.75,-5.25 2.88592,-0.96198 5.22797,-1.01279 8.25,-0.75 z"
     fill="#202020"
     id="path43" />
  <path
     d="m 342.25387,63.876526 c 2.31,0.33 4.62,0.66 7,1 0,0.66 0,1.32 0,2 -1.65,0 -3.3,0 -5,0 0,0.99 0,1.98 0,3 -0.66,0 -1.32,0 -2,0 -0.33,0.99 -0.66,1.98 -1,3 -1.60032,-3.200627 -0.0317,-5.722718 1,-9 z"
     fill="#161716"
     id="path44" />
  <path
     d="m 39.253868,41.876526 c 1.380509,3.766686 0.595682,6.447892 -0.4375,10.25 -0.287461,1.077656 -0.574922,2.155313 -0.871094,3.265625 -0.228164,0.819844 -0.456328,1.639688 -0.691406,2.484375 -0.66,0 -1.32,0 -2,0 0.391604,-5.955074 1.371246,-10.628198 4,-16 z"
     fill="#171817"
     id="path45" />
  <path
     d="m 224.25387,258.87653 c 0.99,0.33 1.98,0.66 3,1 -0.75,7.625 -0.75,7.625 -3,11 -0.66,0 -1.32,0 -2,0 0.66,-3.96 1.32,-7.92 2,-12 z"
     fill="#141414"
     id="path46" />
  <path
     d="m 327.25387,117.87653 c 0.66,0 1.32,0 2,0 -0.14168,1.43791 -0.28851,2.87532 -0.4375,4.3125 -0.0812,0.8005 -0.16242,1.60101 -0.2461,2.42578 -0.3164,2.26172 -0.3164,2.26172 -1.3164,5.26172 -0.99,0 -1.98,0 -3,0 0.99,-3.96 1.98,-7.92 3,-12 z"
     fill="#131313"
     id="path47" />
  <path
     d="m 304.25387,296.87653 c 2.31,0 4.62,0 7,0 0,0.66 0,1.32 0,2 2.31,0.33 4.62,0.66 7,1 0,0.66 0,1.32 0,2 -4.62,-0.99 -9.24,-1.98 -14,-3 0,-0.66 0,-1.32 0,-2 z"
     fill="#FFFFFF"
     id="path48" />
  <path
     d="m 398.25387,121.87653 c 0.82638,2.89234 1,4.88742 1,8 -0.66,0 -1.32,0 -2,0 -0.12375,0.96937 -0.2475,1.93875 -0.375,2.9375 -0.20625,1.01062 -0.4125,2.02125 -0.625,3.0625 -0.99,0.495 -0.99,0.495 -2,1 0.47463,-2.31344 0.95482,-4.62573 1.4375,-6.9375 0.26683,-1.28778 0.53367,-2.57555 0.80859,-3.90235 0.75391,-3.16015 0.75391,-3.16015 1.75391,-4.16015 z"
     fill="#161515"
     id="path49" />
  <path
     d="m 550.25387,264.87653 c 0.66,0 1.32,0 2,0 0.66,2.97 1.32,5.94 2,9 -0.99,-0.33 -1.98,-0.66 -3,-1 0,-0.66 0,-1.32 0,-2 -0.66,0 -1.32,0 -2,0 0.33,-1.98 0.66,-3.96 1,-6 z"
     fill="#ebebea"
     id="path50" />
  <path
     d="m 185.25387,136.87653 c 0.66,0 1.32,0 2,0 0,0.66 0,1.32 0,2 2.475,0.99 2.475,0.99 5,2 0,0.99 0,1.98 0,3 0.99,0.33 1.98,0.66 3,1 -0.66,0.66 -1.32,1.32 -2,2 -1.15194,-1.0978 -2.29635,-2.2035 -3.4375,-3.3125 -0.63809,-0.61489 -1.27617,-1.22977 -1.9336,-1.86329 -1.6289,-1.82421 -1.6289,-1.82421 -2.6289,-4.82421 z"
     fill="#252626"
     id="path51" />
  <path
     d="m 498.25387,95.876526 c 0.66,0.66 1.32,1.32 2,2 -0.125,2.500004 -0.125,2.500004 -1,5.000004 -2.0625,1.3125 -2.0625,1.3125 -4,2 0.49798,-3.73488 0.87492,-5.81238 3,-9.000004 z"
     fill="#ededec"
     id="path52" />
  <path
     d="m 335.25387,88.876526 c 0.99,0 1.98,0 3,0 -0.66,2.97 -1.32,5.94 -2,9 -0.99,0 -1.98,0 -3,0 0.66,-2.97 1.32,-5.94 2,-9 z"
     fill="#141414"
     id="path53" />
  <path
     d="m 460.25387,274.87653 c 0.66,0 1.32,0 2,0 0,3.63 0,7.26 0,11 -3,-4 -3,-4 -4,-7 0.9375,-2.1875 0.9375,-2.1875 2,-4 z"
     fill="#c7c8c8"
     id="path54" />
  <path
     d="m 195.25387,199.87653 c 2.29634,3.4445 2.54016,5.93812 3,10 -0.99,-0.33 -1.98,-0.66 -3,-1 -0.87891,-6.15235 -0.87891,-6.15235 -1,-8 0.33,-0.33 0.66,-0.66 1,-1 z"
     fill="#141414"
     id="path55" />
  <path
     d="m 538.25387,140.87653 c 0.99,0 1.98,0 3,0 0.99,3.3 1.98,6.6 3,10 -0.66,0 -1.32,0 -2,0 -0.33,-1.65 -0.66,-3.3 -1,-5 -0.66,0 -1.32,0 -2,0 -0.33,-1.65 -0.66,-3.3 -1,-5 z"
     fill="#131313"
     id="path56" />
  <path
     d="m 692.25387,282.87653 c 0.66,0.66 1.32,1.32 2,2 -0.31559,4.10269 -0.95905,4.95904 -4,8 0.66,-3.3 1.32,-6.6 2,-10 z"
     fill="#121212"
     id="path57" />
  <path
     d="m 321.25387,138.87653 c 0.66,0.33 1.32,0.66 2,1 -0.33,2.64 -0.66,5.28 -1,8 -0.99,0 -1.98,0 -3,0 0.66,-2.97 1.32,-5.94 2,-9 z"
     fill="#141414"
     id="path58" />
  <path
     d="m 411.25387,65.876526 c 0.66,0 1.32,0 2,0 0.25,2.75 0.25,2.75 0,6 -2,2.375 -2,2.375 -4,4 0.66,-3.3 1.32,-6.6 2,-10 z"
     fill="#1a1a1b"
     id="path59" />
  <path
     d="m 557.25387,279.87653 c 0.99,0.99 1.98,1.98 3,3 0,1.32 0,2.64 0,4 0.66,0 1.32,0 2,0 0,0.66 0,1.32 0,2 -0.99,0 -1.98,0 -3,0 -0.66,-2.97 -1.32,-5.94 -2,-9 z"
     fill="#121313"
     id="path60" />
  <path
     d="m 135.25387,244.87653 c 0.75,1.75 0.75,1.75 1,4 -1.9375,2.25 -1.9375,2.25 -4,4 -1,-2 -1,-2 -0.1875,-4.5625 1.1875,-2.4375 1.1875,-2.4375 3.1875,-3.4375 z"
     fill="#151515"
     id="path61" />
  <path
     d="m 305.25387,235.87653 c 0.33,0.66 0.66,1.32 1,2 -2.64,0.33 -5.28,0.66 -8,1 0,-0.99 0,-1.98 0,-3 3.01032,-0.93424 3.8665,-1.0445 7,0 z"
     fill="#181818"
     id="path62" />
  <path
     d="m 1.2538681,376.87653 c 0.66,0 1.32,0 2,0 0.433125,0.95906 0.433125,0.95906 0.875,1.9375 0.9532345,2.21456 0.9532345,2.21456 3.125,3.0625 -0.33,0.99 -0.66,1.98 -1,3 -2.7987244,-2.52788 -4.4577302,-4.20412 -5,-8 z"
     fill="#191919"
     id="path63" />
  <path
     d="m 396.25387,273.87653 c 2.475,0.495 2.475,0.495 5,1 0.33,1.98 0.66,3.96 1,6 -0.66,0 -1.32,0 -2,0 -0.43313,-1.45407 -0.43313,-1.45407 -0.875,-2.9375 -0.76715,-3.16915 -0.76715,-3.16915 -3.125,-4.0625 z"
     fill="#151616"
     id="path64" />
  <path
     d="m 129.25387,210.87653 c 2,3 2,3 2,7 -0.66,0 -1.32,0 -2,0 -0.66,-1.98 -1.32,-3.96 -2,-6 0.66,-0.33 1.32,-0.66 2,-1 z"
     fill="#121212"
     id="path65" />
</svg>
